<svg width="18" height="18" viewBox="0 0 18 18" fill="none" xmlns="http://www.w3.org/2000/svg">
<path d="M14.8425 3.165C12.6225 0.952498 9.02249 0.952498 6.81749 3.165C5.26499 4.7025 4.79999 6.915 5.39999 8.865L1.87499 12.39C1.62749 12.645 1.45499 13.1475 1.50749 13.5075L1.73249 15.1425C1.81499 15.6825 2.31749 16.1925 2.85749 16.2675L4.49249 16.4925C4.85249 16.545 5.35499 16.38 5.60999 16.1175L6.22499 15.5025C6.37499 15.36 6.37499 15.12 6.22499 14.97L4.76999 13.515C4.55249 13.2975 4.55249 12.9375 4.76999 12.72C4.98749 12.5025 5.34749 12.5025 5.56499 12.72L7.02749 14.1825C7.16999 14.325 7.40999 14.325 7.55249 14.1825L9.14249 12.6C11.085 13.2075 13.2975 12.735 14.8425 11.1975C17.055 8.985 17.055 5.3775 14.8425 3.165ZM10.875 9C9.83999 9 8.99999 8.16 8.99999 7.125C8.99999 6.09 9.83999 5.25 10.875 5.25C11.91 5.25 12.75 6.09 12.75 7.125C12.75 8.16 11.91 9 10.875 9Z" fill="#677481"/>
</svg>
