<svg width="18" height="18" viewBox="0 0 18 18" fill="none" xmlns="http://www.w3.org/2000/svg">
<path d="M15.9372 13.8525L14.6997 14.145C14.4222 14.2125 14.2047 14.4225 14.1447 14.7L13.8822 15.8025C13.7397 16.4025 12.9747 16.59 12.5772 16.1175L10.3347 13.5375C10.1547 13.3275 10.2522 12.9975 10.5222 12.93C11.8497 12.6075 13.0422 11.865 13.9197 10.8075C14.0622 10.635 14.3172 10.6125 14.4747 10.77L16.1397 12.435C16.7097 13.005 16.5072 13.7175 15.9372 13.8525Z" fill="#677481"/>
<path d="M2.02537 13.8525L3.26287 14.145C3.54037 14.2125 3.75787 14.4225 3.81787 14.7L4.08037 15.8025C4.22287 16.4025 4.98787 16.59 5.38537 16.1175L7.62787 13.5375C7.80787 13.3275 7.71037 12.9975 7.44037 12.93C6.11287 12.6075 4.92037 11.865 4.04287 10.8075C3.90037 10.635 3.64537 10.6125 3.48787 10.77L1.82287 12.435C1.25287 13.005 1.45537 13.7175 2.02537 13.8525Z" fill="#677481"/>
<path d="M9 1.5C6.0975 1.5 3.75 3.8475 3.75 6.75C3.75 7.8375 4.0725 8.835 4.6275 9.6675C5.4375 10.8675 6.72 11.715 8.2125 11.9325C8.4675 11.9775 8.73 12 9 12C9.27 12 9.5325 11.9775 9.7875 11.9325C11.28 11.715 12.5625 10.8675 13.3725 9.6675C13.9275 8.835 14.25 7.8375 14.25 6.75C14.25 3.8475 11.9025 1.5 9 1.5ZM11.295 6.585L10.6725 7.2075C10.5675 7.3125 10.5075 7.515 10.545 7.665L10.725 8.4375C10.8675 9.045 10.545 9.285 10.005 8.9625L9.255 8.52C9.12 8.4375 8.895 8.4375 8.76 8.52L8.01 8.9625C7.47 9.2775 7.1475 9.045 7.29 8.4375L7.47 7.665C7.5 7.5225 7.4475 7.3125 7.3425 7.2075L6.705 6.585C6.3375 6.2175 6.4575 5.85 6.9675 5.7675L7.77 5.6325C7.905 5.61 8.0625 5.49 8.1225 5.37L8.565 4.485C8.805 4.005 9.195 4.005 9.435 4.485L9.8775 5.37C9.9375 5.49 10.095 5.61 10.2375 5.6325L11.04 5.7675C11.5425 5.85 11.6625 6.2175 11.295 6.585Z" fill="#677481"/>
</svg>
