<svg width="20" height="20" viewBox="0 0 20 20" fill="none" xmlns="http://www.w3.org/2000/svg">
<path d="M18.3333 9.99996C18.3333 5.40829 14.5916 1.66663 9.99996 1.66663C5.40829 1.66663 1.66663 5.40829 1.66663 9.99996C1.66663 12.4166 2.70829 14.5916 4.35829 16.1166C4.35829 16.125 4.35829 16.125 4.34996 16.1333C4.43329 16.2166 4.53329 16.2833 4.61663 16.3583C4.66663 16.4 4.70829 16.4416 4.75829 16.475C4.90829 16.6 5.07496 16.7166 5.23329 16.8333C5.29163 16.875 5.34163 16.9083 5.39996 16.95C5.55829 17.0583 5.72496 17.1583 5.89996 17.25C5.95829 17.2833 6.02496 17.325 6.08329 17.3583C6.24996 17.45 6.42496 17.5333 6.60829 17.6083C6.67496 17.6416 6.74163 17.675 6.80829 17.7C6.99163 17.775 7.17496 17.8416 7.35829 17.9C7.42496 17.925 7.49163 17.95 7.55829 17.9666C7.75829 18.025 7.95829 18.075 8.15829 18.125C8.21663 18.1416 8.27496 18.1583 8.34163 18.1666C8.57496 18.2166 8.80829 18.25 9.04996 18.275C9.08329 18.275 9.11663 18.2833 9.14996 18.2916C9.43329 18.3166 9.71663 18.3333 9.99996 18.3333C10.2833 18.3333 10.5666 18.3166 10.8416 18.2916C10.875 18.2916 10.9083 18.2833 10.9416 18.275C11.1833 18.25 11.4166 18.2166 11.65 18.1666C11.7083 18.1583 11.7666 18.1333 11.8333 18.125C12.0333 18.075 12.2416 18.0333 12.4333 17.9666C12.5 17.9416 12.5666 17.9166 12.6333 17.9C12.8166 17.8333 13.0083 17.775 13.1833 17.7C13.25 17.675 13.3166 17.6416 13.3833 17.6083C13.5583 17.5333 13.7333 17.45 13.9083 17.3583C13.975 17.325 14.0333 17.2833 14.0916 17.25C14.2583 17.15 14.425 17.0583 14.5916 16.95C14.65 16.9166 14.7 16.875 14.7583 16.8333C14.925 16.7166 15.0833 16.6 15.2333 16.475C15.2833 16.4333 15.325 16.3916 15.375 16.3583C15.4666 16.2833 15.5583 16.2083 15.6416 16.1333C15.6416 16.125 15.6416 16.125 15.6333 16.1166C17.2916 14.5916 18.3333 12.4166 18.3333 9.99996ZM14.1166 14.1416C11.8583 12.625 8.15829 12.625 5.88329 14.1416C5.51663 14.3833 5.21663 14.6666 4.96663 14.975C3.69996 13.6916 2.91663 11.9333 2.91663 9.99996C2.91663 6.09163 6.09163 2.91663 9.99996 2.91663C13.9083 2.91663 17.0833 6.09163 17.0833 9.99996C17.0833 11.9333 16.3 13.6916 15.0333 14.975C14.7916 14.6666 14.4833 14.3833 14.1166 14.1416Z" fill="white"/>
<path d="M10 5.77502C8.275 5.77502 6.875 7.17502 6.875 8.90003C6.875 10.5917 8.2 11.9667 9.95833 12.0167C9.98333 12.0167 10.0167 12.0167 10.0333 12.0167C10.05 12.0167 10.075 12.0167 10.0917 12.0167C10.1 12.0167 10.1083 12.0167 10.1083 12.0167C11.7917 11.9584 13.1167 10.5917 13.125 8.90003C13.125 7.17502 11.725 5.77502 10 5.77502Z" fill="white"/>
</svg>
