<svg width="18" height="18" viewBox="0 0 18 18" fill="none" xmlns="http://www.w3.org/2000/svg">
<path d="M2.0775 7.5C1.755 7.5 1.5 7.245 1.5 6.9225V5.19C1.5 3.1575 3.1575 1.5 5.19 1.5H6.9225C7.245 1.5 7.5 1.755 7.5 2.0775C7.5 2.4 7.245 2.655 6.9225 2.655H5.19C3.7875 2.655 2.655 3.795 2.655 5.19V6.9225C2.655 7.245 2.3925 7.5 2.0775 7.5Z" fill="#677481"/>
<path d="M15.9225 7.5C15.6075 7.5 15.345 7.245 15.345 6.9225V5.19C15.345 3.7875 14.205 2.655 12.81 2.655H11.0775C10.755 2.655 10.5 2.3925 10.5 2.0775C10.5 1.7625 10.755 1.5 11.0775 1.5H12.81C14.8425 1.5 16.5 3.1575 16.5 5.19V6.9225C16.5 7.245 16.245 7.5 15.9225 7.5Z" fill="#677481"/>
<path d="M12.8095 16.5H11.767C11.452 16.5 11.1895 16.245 11.1895 15.9225C11.1895 15.6075 11.4445 15.345 11.767 15.345H12.8095C14.212 15.345 15.3445 14.205 15.3445 12.81V11.775C15.3445 11.46 15.5995 11.1975 15.922 11.1975C16.237 11.1975 16.4995 11.4525 16.4995 11.775V12.81C16.4995 14.8425 14.842 16.5 12.8095 16.5Z" fill="#677481"/>
<path d="M6.9225 16.5H5.19C3.1575 16.5 1.5 14.8425 1.5 12.81V11.0775C1.5 10.755 1.755 10.5 2.0775 10.5C2.4 10.5 2.655 10.755 2.655 11.0775V12.81C2.655 14.2125 3.795 15.345 5.19 15.345H6.9225C7.2375 15.345 7.5 15.6 7.5 15.9225C7.5 16.245 7.245 16.5 6.9225 16.5Z" fill="#677481"/>
<path d="M13.8456 8.42249H12.8256H5.17562H4.15562C3.83312 8.42249 3.57812 8.68499 3.57812 8.99999C3.57812 9.31499 3.83312 9.57749 4.15562 9.57749H5.17562H12.8256H13.8456C14.1681 9.57749 14.4231 9.31499 14.4231 8.99999C14.4231 8.68499 14.1681 8.42249 13.8456 8.42249Z" fill="#677481"/>
<path d="M5.17578 10.455V10.7025C5.17578 11.9475 6.18078 12.9525 7.42578 12.9525H10.5758C11.8208 12.9525 12.8258 11.9475 12.8258 10.7025V10.455C12.8258 10.365 12.7583 10.2975 12.6683 10.2975H5.33328C5.24328 10.2975 5.17578 10.365 5.17578 10.455Z" fill="#677481"/>
<path d="M5.17578 7.54499V7.29748C5.17578 6.05248 6.18078 5.04749 7.42578 5.04749H10.5758C11.8208 5.04749 12.8258 6.05248 12.8258 7.29748V7.54499C12.8258 7.63499 12.7583 7.70249 12.6683 7.70249H5.33328C5.24328 7.70249 5.17578 7.63499 5.17578 7.54499Z" fill="#677481"/>
</svg>
