<svg width="20" height="20" viewBox="0 0 20 20" fill="none" xmlns="http://www.w3.org/2000/svg">
<path d="M13.3327 10.75V14.25C13.3327 17.1666 12.166 18.3333 9.24935 18.3333H5.74935C2.83268 18.3333 1.66602 17.1666 1.66602 14.25V10.75C1.66602 7.83329 2.83268 6.66663 5.74935 6.66663H9.24935C12.166 6.66663 13.3327 7.83329 13.3327 10.75Z" fill="#677481"/>
<path d="M14.2508 1.66663H10.7508C7.87578 1.66663 6.70911 2.80829 6.67578 5.62496H9.25078C12.7508 5.62496 14.3758 7.24996 14.3758 10.75V13.325C17.1924 13.2916 18.3341 12.125 18.3341 9.24996V5.74996C18.3341 2.83329 17.1674 1.66663 14.2508 1.66663Z" fill="#677481"/>
</svg>
