<svg width="36" height="36" viewBox="0 0 36 36" fill="none" xmlns="http://www.w3.org/2000/svg">
<path d="M27.0296 18.495L25.1996 16.665C24.7646 16.29 24.5096 15.735 24.4946 15.12C24.4646 14.445 24.7346 13.77 25.2296 13.275L27.0296 11.475C28.5896 9.915 29.1746 8.415 28.6796 7.23C28.1996 6.06 26.7146 5.415 24.5246 5.415H8.84961V4.125C8.84961 3.51 8.33961 3 7.72461 3C7.10961 3 6.59961 3.51 6.59961 4.125V31.875C6.59961 32.49 7.10961 33 7.72461 33C8.33961 33 8.84961 32.49 8.84961 31.875V24.555H24.5246C26.6846 24.555 28.1396 23.895 28.6346 22.71C29.1296 21.525 28.5596 20.04 27.0296 18.495Z" fill="#FCC958"/>
</svg>
