<svg width="20" height="20" viewBox="0 0 20 20" fill="none" xmlns="http://www.w3.org/2000/svg">
<g clip-path="url(#clip0_44_1420)">
<path d="M9.99962 0C5.5855 0 1.84238 2.86112 0.516113 6.82927H19.4838C18.1578 2.86112 14.4142 0 9.99962 0Z" fill="#1A1A1A"/>
<path d="M9.99962 20C14.4142 20 18.1576 17.1389 19.4838 13.1703H0.516113C1.84238 17.1389 5.5855 20 9.99962 20Z" fill="url(#paint0_linear_44_1420)"/>
<path d="M20 10.0001C20 8.89134 19.8166 7.82592 19.4839 6.82922H0.516134C0.183175 7.82592 0 8.89134 0 10.0001C0 11.1088 0.183175 12.174 0.516134 13.1702H19.4839C19.8166 12.174 20 11.1088 20 10.0001Z" fill="url(#paint1_linear_44_1420)"/>
</g>
<defs>
<linearGradient id="paint0_linear_44_1420" x1="10" y1="13.1702" x2="10" y2="19.9999" gradientUnits="userSpaceOnUse">
<stop stop-color="#FCD447"/>
<stop offset="0.6235" stop-color="#FCD447"/>
<stop offset="1" stop-color="#FFDE78"/>
</linearGradient>
<linearGradient id="paint1_linear_44_1420" x1="0" y1="9.99976" x2="20" y2="9.99976" gradientUnits="userSpaceOnUse">
<stop stop-color="#ED2224"/>
<stop offset="1" stop-color="#E61E25"/>
</linearGradient>
<clipPath id="clip0_44_1420">
<rect width="20" height="20" fill="white"/>
</clipPath>
</defs>
</svg>
