<svg width="20" height="20" viewBox="0 0 20 20" fill="none" xmlns="http://www.w3.org/2000/svg">
<path d="M9.99998 0C5.58605 0 1.84264 2.86115 0.516357 6.82984H19.4841C18.1578 2.86115 14.4146 0 9.99998 0Z" fill="url(#paint0_linear_44_1425)"/>
<path d="M9.99997 20C14.4146 20 18.1578 17.1386 19.4838 13.1707H0.516357C1.84264 17.1386 5.58605 20 9.99997 20Z" fill="#F9F9F9"/>
<path d="M20 9.99999C20 8.89149 19.8171 7.8263 19.4839 6.82959H0.516382C0.18342 7.8263 0 8.89149 0 9.99999C0 11.109 0.18342 12.1737 0.516382 13.1709H19.4841C19.8171 12.1739 20 11.109 20 9.99999Z" fill="#1A1A1A"/>
<defs>
<linearGradient id="paint0_linear_44_1425" x1="0.516309" y1="3.41487" x2="19.484" y2="3.41487" gradientUnits="userSpaceOnUse">
<stop stop-color="#1A4697"/>
<stop offset="1" stop-color="#3150A3"/>
</linearGradient>
</defs>
</svg>
