<svg id="Слой_1" data-name="Слой 1" xmlns="http://www.w3.org/2000/svg" viewBox="0 0 96.66 96.66"><defs><style>.cls-1{fill:#575757;}.cls-2{fill:#5ebb46;}</style></defs><title>24-7</title><path class="cls-1" d="M50,4.74V1.62A48.39,48.39,0,0,0,1.71,50H4.83A45.27,45.27,0,0,1,50,4.74Z" transform="translate(-1.71 -1.62)"/><path class="cls-1" d="M95.26,50A45.27,45.27,0,0,1,50,95.17v3.12A48.39,48.39,0,0,0,98.38,50Z" transform="translate(-1.71 -1.62)"/><path class="cls-2" d="M92.14,50a41.84,41.84,0,0,0-7.71-24.29l-2.55,1.8a38.91,38.91,0,1,1-6.5-7.14H67.19v3.12H79.67a1.56,1.56,0,0,0,1.56-1.56V9.42H78.11v9.17A42.09,42.09,0,1,0,92.14,50Z" transform="translate(-1.71 -1.62)"/><path class="cls-1" d="M50,18.77A31.19,31.19,0,1,0,81.23,50,31.22,31.22,0,0,0,50,18.77ZM78,51.52a28,28,0,0,1-7.1,17.12l-4.19-4.19-2.21,2.2,4.19,4.19a27.89,27.89,0,0,1-17.12,7.1V71.78H48.48v6.16a27.92,27.92,0,0,1-17.12-7.1l4.19-4.19-2.2-2.2-4.19,4.19a27.92,27.92,0,0,1-7.1-17.12h6.16V48.4H22.06a27.89,27.89,0,0,1,7.1-17.12l4.19,4.19,2.2-2.21-4.19-4.19A28,28,0,0,1,48.48,22v6.16H51.6V22a28,28,0,0,1,17.12,7.1l-4.19,4.19,2.21,2.21,4.19-4.19A28,28,0,0,1,78,48.4H71.87v3.12Z" transform="translate(-1.71 -1.62)"/><path class="cls-2" d="M39.88,46.09H33.83V44.93l5.53-2.37a.86.86,0,0,0,.52-.8V38.3a.87.87,0,0,0-.86-.86H33a.87.87,0,0,0-.86.86v2.6h1.73V39.17h4.32v2l-5.53,2.37a.86.86,0,0,0-.52.8V47a.87.87,0,0,0,.86.87h6.92Z" transform="translate(-1.71 -1.62)"/><path class="cls-2" d="M42.48,44.36h5.18v3.46h1.73V37.44H47.66v5.19H43.34V37.44H41.61v6.05A.87.87,0,0,0,42.48,44.36Z" transform="translate(-1.71 -1.62)"/><path class="cls-1" d="M61,37.53l-.13.13a1.46,1.46,0,0,0,0,2.07,1.44,1.44,0,0,0,1,.43,1.48,1.48,0,0,0,1-.42L63,39.6A1.46,1.46,0,1,0,61,37.53Z" transform="translate(-1.71 -1.62)"/><path class="cls-1" d="M55.89,46.11a1.43,1.43,0,0,0,1-.43l.27-.27a1.46,1.46,0,1,0-2.06-2.07l-.27.27a1.48,1.48,0,0,0,0,2.07A1.51,1.51,0,0,0,55.89,46.11Z" transform="translate(-1.71 -1.62)"/><path class="cls-1" d="M58.88,43.13a1.44,1.44,0,0,0,1-.42l.28-.27a1.46,1.46,0,0,0-2.06-2.07l-.28.27a1.45,1.45,0,0,0,0,2.06A1.43,1.43,0,0,0,58.88,43.13Z" transform="translate(-1.71 -1.62)"/><path class="cls-1" d="M54.21,46.32a1.46,1.46,0,0,0-2.07,0l-.27.27a1.46,1.46,0,0,0,1,2.5,1.45,1.45,0,0,0,1-.43l.27-.27A1.45,1.45,0,0,0,54.21,46.32Z" transform="translate(-1.71 -1.62)"/><path class="cls-1" d="M43.17,55.23l-.28.27A1.46,1.46,0,1,0,45,57.57l.28-.27a1.46,1.46,0,1,0-2.06-2.07Z" transform="translate(-1.71 -1.62)"/><path class="cls-1" d="M49.15,49.28l-.27.27a1.46,1.46,0,0,0,1,2.5,1.48,1.48,0,0,0,1-.42l.27-.27a1.46,1.46,0,0,0-2.06-2.08Z" transform="translate(-1.71 -1.62)"/><path class="cls-1" d="M46.16,52.25l-.27.27a1.46,1.46,0,0,0,0,2.07,1.44,1.44,0,0,0,1,.43,1.48,1.48,0,0,0,1-.42l.27-.27a1.46,1.46,0,0,0-2.06-2.08Z" transform="translate(-1.71 -1.62)"/><path class="cls-1" d="M40.17,58.2l-.27.27a1.48,1.48,0,0,0,0,2.07,1.51,1.51,0,0,0,1,.43,1.43,1.43,0,0,0,1-.43l.27-.27a1.46,1.46,0,1,0-2.06-2.07Z" transform="translate(-1.71 -1.62)"/><path class="cls-1" d="M37.18,61.17l-.14.14a1.47,1.47,0,0,0,1,2.5,1.41,1.41,0,0,0,1-.43l.14-.13a1.46,1.46,0,1,0-2.06-2.08Z" transform="translate(-1.71 -1.62)"/><path class="cls-2" d="M62.1,57.38V53.92a.86.86,0,0,0-.87-.86h-6a.86.86,0,0,0-.87.86v2.6H56V54.79h4.33v2l-1.26,2.31h-2v1.66h1.07c-.91,1.7-1.84,3.45-2.16,4.18h2.09c.47-.91,1.39-2.61,2.22-4.18h1.86V59.12h-1A15.78,15.78,0,0,0,62.1,57.38Z" transform="translate(-1.71 -1.62)"/></svg>