<svg id="Слой_1" data-name="Слой 1" xmlns="http://www.w3.org/2000/svg" viewBox="0 0 92.61 96.66"><defs><style>.cls-1{fill:#575757;}.cls-2{fill:#5ebb46;}</style></defs><title>Авторобот</title><path class="cls-1" d="M84.8,87h-10a4.33,4.33,0,0,1-4.32-4.33h2.42a1.91,1.91,0,0,0,1.9,1.91h10Z" transform="translate(-3.24 -1.74)"/><rect class="cls-1" x="45.85" y="80.92" width="8.74" height="2.42"/><rect class="cls-1" x="45.85" y="87.97" width="8.74" height="2.42"/><path class="cls-1" d="M84,73.45V94.67a1.3,1.3,0,0,1-1.3,1.3H59.27V78.87a4.34,4.34,0,0,0-4.33-4.32H43.61v-13H41.19V82a36.19,36.19,0,0,1-17.66-8.44h10V71.16H21a37.89,37.89,0,0,1-3.53-4.35H33.53V64.39H15.92A36.43,36.43,0,0,1,13.31,59H37.16V56.56h-8.6V47H26.14v9.55H20.39V47H18v9.55H12.49A35.79,35.79,0,0,1,10.91,46H8.48A38.94,38.94,0,0,0,41.19,84.47v10.2a3.73,3.73,0,0,0,3.73,3.73H82.66a3.73,3.73,0,0,0,3.72-3.73V73.45ZM43.61,94.67V77H54.94a1.9,1.9,0,0,1,1.9,1.9V96H44.92A1.31,1.31,0,0,1,43.61,94.67Z" transform="translate(-3.24 -1.74)"/><path class="cls-1" d="M94.19,63.52H73.08a1.21,1.21,0,0,1-.92-.42L60.39,49.55,62.22,48,73.63,61.1H94.19Z" transform="translate(-3.24 -1.74)"/><path class="cls-2" d="M34.43,47.51h-30a1.21,1.21,0,0,1-1.21-1.2v-.08A43.15,43.15,0,0,1,16.91,14.77a47.49,47.49,0,0,1,32.93-13h0A1.21,1.21,0,0,1,51.06,3V35.2H48.63v-31C25.23,4.81,6.3,22.83,5.68,45.09H34.43Z" transform="translate(-3.24 -1.74)"/><rect class="cls-2" x="8.35" y="19.62" width="23.88" height="2.42"/><circle class="cls-2" cx="32.95" cy="20.83" r="3.57"/><rect class="cls-2" x="3.35" y="31.1" width="20.04" height="2.42"/><path class="cls-2" d="M30.92,34.05a3.58,3.58,0,1,1-3.57-3.57A3.57,3.57,0,0,1,30.92,34.05Z" transform="translate(-3.24 -1.74)"/><path class="cls-1" d="M47.76,55.31a6.56,6.56,0,1,1,6.55-6.55A6.56,6.56,0,0,1,47.76,55.31Zm0-10.69a4.14,4.14,0,1,0,4.13,4.14A4.15,4.15,0,0,0,47.76,44.62Z" transform="translate(-3.24 -1.74)"/><path class="cls-2" d="M68.46,28.23H50.87V25.81H68.46a2.27,2.27,0,0,0,2.27-2.27V12.08h2.42V23.54A4.69,4.69,0,0,1,68.46,28.23Z" transform="translate(-3.24 -1.74)"/><rect class="cls-1" x="47.75" y="31.1" width="39.28" height="2.42"/><path class="cls-2" d="M59.9,21.27a1.85,1.85,0,1,1-1.84-1.85A1.84,1.84,0,0,1,59.9,21.27Z" transform="translate(-3.24 -1.74)"/><path class="cls-2" d="M59.9,15.42a1.85,1.85,0,1,1-1.84-1.85A1.84,1.84,0,0,1,59.9,15.42Z" transform="translate(-3.24 -1.74)"/><path class="cls-2" d="M94.44,73.41h-26a1.22,1.22,0,0,1-.92-.43L56.44,60l1.84-1.57L69,71H93.28c1-24.56-3-41.17-12.13-50.76C74.16,12.91,64,9.5,49.23,9.5V7.08c15.5,0,26.2,3.64,33.67,11.47,9.78,10.25,13.95,27.82,12.75,53.7A1.21,1.21,0,0,1,94.44,73.41Z" transform="translate(-3.24 -1.74)"/><path class="cls-1" d="M47.76,63.52A14.77,14.77,0,1,1,62.52,48.76,14.78,14.78,0,0,1,47.76,63.52Zm0-27.11A12.35,12.35,0,1,0,60.1,48.76,12.36,12.36,0,0,0,47.76,36.41Z" transform="translate(-3.24 -1.74)"/></svg>