<svg id="Слой_1" data-name="Слой 1" xmlns="http://www.w3.org/2000/svg" viewBox="0 0 88.38 97.38"><defs><style>.cls-1{fill:#5ebb46;}.cls-2{fill:#575757;}</style></defs><title>Комьюнити</title><path class="cls-1" d="M89.49,66.3c-.42-.3-.41-.53-.25-.93a44.93,44.93,0,0,0,2.19-7.69,36.46,36.46,0,0,0,.08-12.46c-.31-1.91-.72-3.8-1.1-5.77l-2.92.74c.06.27.1.48.15.69A45,45,0,0,1,89,52a37.89,37.89,0,0,1-2.64,12.61c-.13.35-.34.35-.64.33a7.43,7.43,0,1,0,3.74,1.4ZM85.11,76.76a4.46,4.46,0,0,1,0-8.92,4.46,4.46,0,1,1,0,8.92Z" transform="translate(-5.84 -1.23)"/><path class="cls-1" d="M28.17,82.32a35.35,35.35,0,0,1-9-8.55c-.23-.28-.09-.45.07-.66a7.14,7.14,0,0,0,1.49-4.44,7.41,7.41,0,0,0-14.48-2.3c-.14.46-.25.94-.37,1.41v1.65a1.86,1.86,0,0,1,.1.31,7.38,7.38,0,0,0,9.68,5.94c1-.32,1-.31,1.72.58a37.72,37.72,0,0,0,7.42,7.35A38.24,38.24,0,0,0,36,89c.88.28,1.77.53,2.7.8L39.42,87l-.93-.27A40.42,40.42,0,0,1,28.17,82.32ZM13.24,73.09a4.45,4.45,0,0,1-4.43-4.5,4.46,4.46,0,1,1,8.92.12A4.43,4.43,0,0,1,13.24,73.09Z" transform="translate(-5.84 -1.23)"/><path class="cls-1" d="M22.93,21.55a43.26,43.26,0,0,1,7.16-5.78,34,34,0,0,1,13.63-4.56c.34-.05.47.08.6.37A7.42,7.42,0,0,0,58.47,9.86a7.38,7.38,0,0,0-4.69-8.11c-.61-.22-1.25-.35-1.88-.52H50.47c-.12,0-.24.08-.36.1a7.16,7.16,0,0,0-5.74,4.33,18.87,18.87,0,0,0-.79,2.6A38.55,38.55,0,0,0,30.83,12,42.69,42.69,0,0,0,20.28,20l2.07,2.17C22.54,22,22.73,21.75,22.93,21.55ZM51.13,4.2a4.47,4.47,0,1,1-4.44,4.64A4.46,4.46,0,0,1,51.13,4.2Z" transform="translate(-5.84 -1.23)"/><path class="cls-2" d="M9,60.54l2.92-.69c-.08-.26-.18-.53-.25-.82a43,43,0,0,1-1.37-9.09,34.1,34.1,0,0,1,3-14.07c.13-.32.31-.37.63-.33a7.41,7.41,0,1,0-3.7-13.13c-.5.41-.94.9-1.41,1.36L8,25c0,.12,0,.25-.09.36a7.16,7.16,0,0,0,.83,7.14,20,20,0,0,0,1.84,2A38.71,38.71,0,0,0,7.35,47.38,42.45,42.45,0,0,0,9,60.54Zm2-34.61a4.47,4.47,0,1,1,1.76,6.19A4.48,4.48,0,0,1,10.92,25.93Z" transform="translate(-5.84 -1.23)"/><path class="cls-2" d="M70.47,16.08A33.93,33.93,0,0,1,81,25.85a.5.5,0,0,1,0,.71,7.41,7.41,0,1,0,13.16,3.58c-.09-.64-.29-1.27-.44-1.91L93,27c-.08-.09-.18-.17-.26-.27a7.18,7.18,0,0,0-6.55-2.95,19.69,19.69,0,0,0-2.66.55,38.42,38.42,0,0,0-9.37-9.41A42.3,42.3,0,0,0,62,9.51l-.91,2.86c.27.06.56.12.83.2A42.38,42.38,0,0,1,70.47,16.08Zm14,11.24a4.46,4.46,0,1,1-1.57,6.07A4.45,4.45,0,0,1,84.51,27.32Z" transform="translate(-5.84 -1.23)"/><path class="cls-2" d="M49.38,23A27.57,27.57,0,1,0,76.82,49.69,27.57,27.57,0,0,0,49.38,23Zm-2,3.57a2.92,2.92,0,0,1,3.88,0,10.62,10.62,0,0,1,2.82,3.66,31.94,31.94,0,0,1,2.83,8.39.9.9,0,0,1,0,.24H41.59c.22-.88.4-1.73.63-2.57a27.87,27.87,0,0,1,2.63-6.71A9.64,9.64,0,0,1,47.35,26.52Zm10.1,15.22c.12,1,.27,2,.36,3a61.38,61.38,0,0,1,.12,9.87c-.11,1.44-.31,2.88-.43,4.32,0,.35-.2.39-.5.39H41.1a61.57,61.57,0,0,1,0-17.57ZM43.37,26.56a32.66,32.66,0,0,0-4.7,12.26h-11C29,34.25,38,27.2,43.37,26.56ZM26.07,58.93a24.47,24.47,0,0,1,0-16.77c.09-.25.15-.45.5-.45,3.79,0,7.58,0,11.37,0l.28,0a67,67,0,0,0,0,17.56H36.32c-3.23,0-6.47,0-9.71,0A.49.49,0,0,1,26.07,58.93Zm1.57,3.27h11c.88,4.34,2.12,8.54,4.69,12.25C38.15,73.94,28.94,66.77,27.64,62.2ZM51.38,74.36c-1.52,1.34-3.33,1.09-4.83-.54A17.59,17.59,0,0,1,43,67.32c-.55-1.66-1-3.36-1.49-5.12H57c-.28,1.13-.52,2.22-.83,3.28a23.65,23.65,0,0,1-3,6.82A11.37,11.37,0,0,1,51.38,74.36Zm3.8.09a32.36,32.36,0,0,0,4.63-11.9.56.56,0,0,1,.4-.36c3.53,0,7.07,0,10.6,0,0,0,.06,0,.09,0C69.71,66.67,60.63,73.77,55.18,74.45ZM72.53,42.24a24.46,24.46,0,0,1,0,16.62c-.09.27-.16.47-.54.47-3.79,0-7.58,0-11.37,0a2,2,0,0,1-.25-.05,67.31,67.31,0,0,0,0-17.54h1.25c3.41,0,6.81,0,10.22,0A.63.63,0,0,1,72.53,42.24Zm-2-3.39H60.35c-.34,0-.5-.08-.58-.46a35.14,35.14,0,0,0-2.51-8.09C56.72,29.15,56,28.06,55.41,27a4.23,4.23,0,0,0-.23-.37c5,.36,14,7.32,15.74,12.23C70.77,38.82,70.64,38.85,70.5,38.85Z" transform="translate(-5.84 -1.23)"/><path class="cls-2" d="M77,77.59a44.91,44.91,0,0,1-8.88,6.76,37.84,37.84,0,0,1-12.23,4.06c-.37.06-.48-.12-.6-.39A7.44,7.44,0,1,0,55.9,92c.05-.52.25-.62.68-.69a45.13,45.13,0,0,0,7.75-2,36.28,36.28,0,0,0,10.81-6.2c1.49-1.22,2.92-2.53,4.44-3.85l-2.1-2.15C77.27,77.3,77.1,77.44,77,77.59ZM50.76,95a4.45,4.45,0,1,1-4.5-7.68A4.45,4.45,0,1,1,50.76,95Z" transform="translate(-5.84 -1.23)"/></svg>