<?xml version="1.0" encoding="utf-8"?>
<svg xmlns="http://www.w3.org/2000/svg" xmlns:xlink="http://www.w3.org/1999/xlink" style="margin: auto; background: rgb(255, 255, 255) none repeat scroll 0% 0%; display: block; shape-rendering: auto;" width="297px" height="297px" viewBox="0 0 100 100" preserveAspectRatio="xMidYMid">
<g transform="rotate(0 50 50)">
  <rect x="47.5" y="20" rx="2.5" ry="6" width="5" height="12" fill="#1d2bc0">
    <animate attributeName="opacity" values="1;0" keyTimes="0;1" dur="1.36986301369863s" begin="-1.28928283642224s" repeatCount="indefinite"></animate>
  </rect>
</g><g transform="rotate(21.176470588235293 50 50)">
  <rect x="47.5" y="20" rx="2.5" ry="6" width="5" height="12" fill="#1d2bc0">
    <animate attributeName="opacity" values="1;0" keyTimes="0;1" dur="1.36986301369863s" begin="-1.2087026591458498s" repeatCount="indefinite"></animate>
  </rect>
</g><g transform="rotate(42.35294117647059 50 50)">
  <rect x="47.5" y="20" rx="2.5" ry="6" width="5" height="12" fill="#1d2bc0">
    <animate attributeName="opacity" values="1;0" keyTimes="0;1" dur="1.36986301369863s" begin="-1.12812248186946s" repeatCount="indefinite"></animate>
  </rect>
</g><g transform="rotate(63.529411764705884 50 50)">
  <rect x="47.5" y="20" rx="2.5" ry="6" width="5" height="12" fill="#1d2bc0">
    <animate attributeName="opacity" values="1;0" keyTimes="0;1" dur="1.36986301369863s" begin="-1.0475423045930699s" repeatCount="indefinite"></animate>
  </rect>
</g><g transform="rotate(84.70588235294117 50 50)">
  <rect x="47.5" y="20" rx="2.5" ry="6" width="5" height="12" fill="#1d2bc0">
    <animate attributeName="opacity" values="1;0" keyTimes="0;1" dur="1.36986301369863s" begin="-0.96696212731668s" repeatCount="indefinite"></animate>
  </rect>
</g><g transform="rotate(105.88235294117646 50 50)">
  <rect x="47.5" y="20" rx="2.5" ry="6" width="5" height="12" fill="#1d2bc0">
    <animate attributeName="opacity" values="1;0" keyTimes="0;1" dur="1.36986301369863s" begin="-0.88638195004029s" repeatCount="indefinite"></animate>
  </rect>
</g><g transform="rotate(127.05882352941177 50 50)">
  <rect x="47.5" y="20" rx="2.5" ry="6" width="5" height="12" fill="#1d2bc0">
    <animate attributeName="opacity" values="1;0" keyTimes="0;1" dur="1.36986301369863s" begin="-0.8058017727639s" repeatCount="indefinite"></animate>
  </rect>
</g><g transform="rotate(148.23529411764707 50 50)">
  <rect x="47.5" y="20" rx="2.5" ry="6" width="5" height="12" fill="#1d2bc0">
    <animate attributeName="opacity" values="1;0" keyTimes="0;1" dur="1.36986301369863s" begin="-0.72522159548751s" repeatCount="indefinite"></animate>
  </rect>
</g><g transform="rotate(169.41176470588235 50 50)">
  <rect x="47.5" y="20" rx="2.5" ry="6" width="5" height="12" fill="#1d2bc0">
    <animate attributeName="opacity" values="1;0" keyTimes="0;1" dur="1.36986301369863s" begin="-0.64464141821112s" repeatCount="indefinite"></animate>
  </rect>
</g><g transform="rotate(190.58823529411765 50 50)">
  <rect x="47.5" y="20" rx="2.5" ry="6" width="5" height="12" fill="#1d2bc0">
    <animate attributeName="opacity" values="1;0" keyTimes="0;1" dur="1.36986301369863s" begin="-0.56406124093473s" repeatCount="indefinite"></animate>
  </rect>
</g><g transform="rotate(211.76470588235293 50 50)">
  <rect x="47.5" y="20" rx="2.5" ry="6" width="5" height="12" fill="#1d2bc0">
    <animate attributeName="opacity" values="1;0" keyTimes="0;1" dur="1.36986301369863s" begin="-0.48348106365834s" repeatCount="indefinite"></animate>
  </rect>
</g><g transform="rotate(232.94117647058823 50 50)">
  <rect x="47.5" y="20" rx="2.5" ry="6" width="5" height="12" fill="#1d2bc0">
    <animate attributeName="opacity" values="1;0" keyTimes="0;1" dur="1.36986301369863s" begin="-0.40290088638195s" repeatCount="indefinite"></animate>
  </rect>
</g><g transform="rotate(254.11764705882354 50 50)">
  <rect x="47.5" y="20" rx="2.5" ry="6" width="5" height="12" fill="#1d2bc0">
    <animate attributeName="opacity" values="1;0" keyTimes="0;1" dur="1.36986301369863s" begin="-0.32232070910556s" repeatCount="indefinite"></animate>
  </rect>
</g><g transform="rotate(275.29411764705884 50 50)">
  <rect x="47.5" y="20" rx="2.5" ry="6" width="5" height="12" fill="#1d2bc0">
    <animate attributeName="opacity" values="1;0" keyTimes="0;1" dur="1.36986301369863s" begin="-0.24174053182917s" repeatCount="indefinite"></animate>
  </rect>
</g><g transform="rotate(296.47058823529414 50 50)">
  <rect x="47.5" y="20" rx="2.5" ry="6" width="5" height="12" fill="#1d2bc0">
    <animate attributeName="opacity" values="1;0" keyTimes="0;1" dur="1.36986301369863s" begin="-0.16116035455278s" repeatCount="indefinite"></animate>
  </rect>
</g><g transform="rotate(317.6470588235294 50 50)">
  <rect x="47.5" y="20" rx="2.5" ry="6" width="5" height="12" fill="#1d2bc0">
    <animate attributeName="opacity" values="1;0" keyTimes="0;1" dur="1.36986301369863s" begin="-0.08058017727639s" repeatCount="indefinite"></animate>
  </rect>
</g><g transform="rotate(338.8235294117647 50 50)">
  <rect x="47.5" y="20" rx="2.5" ry="6" width="5" height="12" fill="#1d2bc0">
    <animate attributeName="opacity" values="1;0" keyTimes="0;1" dur="1.36986301369863s" begin="0s" repeatCount="indefinite"></animate>
  </rect>
</g>
<!-- [ldio] generated by https://loading.io/ --></svg>