<svg id="Слой_1" data-name="Слой 1" xmlns="http://www.w3.org/2000/svg" viewBox="0 0 21.81 38.14"><defs><style>.cls-1{fill:none;stroke:#575757;stroke-miterlimit:10;}.cls-2{fill:#575757;}.cls-3{fill:#fffffa;}.cls-4{fill:#5ebb46;}</style></defs><title>Мобайл</title><rect class="cls-1" x="0.5" y="0.5" width="20.81" height="37.14" rx="2.46"/><rect class="cls-1" x="2.54" y="3.38" width="16.74" height="29.26" rx="0.04"/><path class="cls-2" d="M22.44,36.16a1.75,1.75,0,1,0-1.75,1.74A1.75,1.75,0,0,0,22.44,36.16Z" transform="translate(-9.78 -0.93)"/><rect class="cls-3" x="8.18" y="1.7" width="5.45" height="0.57" rx="0.26"/><polygon class="cls-4" points="12.62 18.27 12.62 14.47 9.6 14.47 9.6 18.27 7.81 18.27 10.98 21.41 14.41 18.27 12.62 18.27"/><path class="cls-4" d="M20.89,13.12a5.76,5.76,0,1,1-5.75,5.75,5.76,5.76,0,0,1,5.75-5.75m0-.87a6.63,6.63,0,1,0,6.63,6.62,6.62,6.62,0,0,0-6.63-6.62Z" transform="translate(-9.78 -0.93)"/></svg>