<svg id="sprites">
    <use xlink:href="#sprites" />
    <defs>
        <style>
            .cls-1{fill:#575757;}
            .cls-2{fill:#5ebb46;}
            .scls-1{fill:none;stroke:#575757;stroke-miterlimit:10;}
            .scls-3{fill:#fffffa;}
        </style>
    </defs>
    <symbol viewBox="0 0 96.66 96.66" id="bb-1">
        <path class="cls-1" d="M50,4.74V1.62A48.39,48.39,0,0,0,1.71,50H4.83A45.27,45.27,0,0,1,50,4.74Z" transform="translate(-1.71 -1.62)"/>
        <path class="cls-1" d="M95.26,50A45.27,45.27,0,0,1,50,95.17v3.12A48.39,48.39,0,0,0,98.38,50Z" transform="translate(-1.71 -1.62)"/>
        <path class="cls-2" d="M92.14,50a41.84,41.84,0,0,0-7.71-24.29l-2.55,1.8a38.91,38.91,0,1,1-6.5-7.14H67.19v3.12H79.67a1.56,1.56,0,0,0,1.56-1.56V9.42H78.11v9.17A42.09,42.09,0,1,0,92.14,50Z" transform="translate(-1.71 -1.62)"/>
        <path class="cls-1" d="M50,18.77A31.19,31.19,0,1,0,81.23,50,31.22,31.22,0,0,0,50,18.77ZM78,51.52a28,28,0,0,1-7.1,17.12l-4.19-4.19-2.21,2.2,4.19,4.19a27.89,27.89,0,0,1-17.12,7.1V71.78H48.48v6.16a27.92,27.92,0,0,1-17.12-7.1l4.19-4.19-2.2-2.2-4.19,4.19a27.92,27.92,0,0,1-7.1-17.12h6.16V48.4H22.06a27.89,27.89,0,0,1,7.1-17.12l4.19,4.19,2.2-2.21-4.19-4.19A28,28,0,0,1,48.48,22v6.16H51.6V22a28,28,0,0,1,17.12,7.1l-4.19,4.19,2.21,2.21,4.19-4.19A28,28,0,0,1,78,48.4H71.87v3.12Z" transform="translate(-1.71 -1.62)"/>
        <path class="cls-2" d="M39.88,46.09H33.83V44.93l5.53-2.37a.86.86,0,0,0,.52-.8V38.3a.87.87,0,0,0-.86-.86H33a.87.87,0,0,0-.86.86v2.6h1.73V39.17h4.32v2l-5.53,2.37a.86.86,0,0,0-.52.8V47a.87.87,0,0,0,.86.87h6.92Z" transform="translate(-1.71 -1.62)"/>
        <path class="cls-2" d="M42.48,44.36h5.18v3.46h1.73V37.44H47.66v5.19H43.34V37.44H41.61v6.05A.87.87,0,0,0,42.48,44.36Z" transform="translate(-1.71 -1.62)"/>
        <path class="cls-1" d="M61,37.53l-.13.13a1.46,1.46,0,0,0,0,2.07,1.44,1.44,0,0,0,1,.43,1.48,1.48,0,0,0,1-.42L63,39.6A1.46,1.46,0,1,0,61,37.53Z" transform="translate(-1.71 -1.62)"/>
        <path class="cls-1" d="M55.89,46.11a1.43,1.43,0,0,0,1-.43l.27-.27a1.46,1.46,0,1,0-2.06-2.07l-.27.27a1.48,1.48,0,0,0,0,2.07A1.51,1.51,0,0,0,55.89,46.11Z" transform="translate(-1.71 -1.62)"/>
        <path class="cls-1" d="M58.88,43.13a1.44,1.44,0,0,0,1-.42l.28-.27a1.46,1.46,0,0,0-2.06-2.07l-.28.27a1.45,1.45,0,0,0,0,2.06A1.43,1.43,0,0,0,58.88,43.13Z" transform="translate(-1.71 -1.62)"/>
        <path class="cls-1" d="M54.21,46.32a1.46,1.46,0,0,0-2.07,0l-.27.27a1.46,1.46,0,0,0,1,2.5,1.45,1.45,0,0,0,1-.43l.27-.27A1.45,1.45,0,0,0,54.21,46.32Z" transform="translate(-1.71 -1.62)"/>
        <path class="cls-1" d="M43.17,55.23l-.28.27A1.46,1.46,0,1,0,45,57.57l.28-.27a1.46,1.46,0,1,0-2.06-2.07Z" transform="translate(-1.71 -1.62)"/>
        <path class="cls-1" d="M49.15,49.28l-.27.27a1.46,1.46,0,0,0,1,2.5,1.48,1.48,0,0,0,1-.42l.27-.27a1.46,1.46,0,0,0-2.06-2.08Z" transform="translate(-1.71 -1.62)"/>
        <path class="cls-1" d="M46.16,52.25l-.27.27a1.46,1.46,0,0,0,0,2.07,1.44,1.44,0,0,0,1,.43,1.48,1.48,0,0,0,1-.42l.27-.27a1.46,1.46,0,0,0-2.06-2.08Z" transform="translate(-1.71 -1.62)"/>
        <path class="cls-1" d="M40.17,58.2l-.27.27a1.48,1.48,0,0,0,0,2.07,1.51,1.51,0,0,0,1,.43,1.43,1.43,0,0,0,1-.43l.27-.27a1.46,1.46,0,1,0-2.06-2.07Z" transform="translate(-1.71 -1.62)"/>
        <path class="cls-1" d="M37.18,61.17l-.14.14a1.47,1.47,0,0,0,1,2.5,1.41,1.41,0,0,0,1-.43l.14-.13a1.46,1.46,0,1,0-2.06-2.08Z" transform="translate(-1.71 -1.62)"/>
        <path class="cls-2" d="M62.1,57.38V53.92a.86.86,0,0,0-.87-.86h-6a.86.86,0,0,0-.87.86v2.6H56V54.79h4.33v2l-1.26,2.31h-2v1.66h1.07c-.91,1.7-1.84,3.45-2.16,4.18h2.09c.47-.91,1.39-2.61,2.22-4.18h1.86V59.12h-1A15.78,15.78,0,0,0,62.1,57.38Z" transform="translate(-1.71 -1.62)"/>
    </symbol>
    <symbol viewBox="0 0 92.61 96.66" id="bb-2">
        <path class="cls-1" d="M84.8,87h-10a4.33,4.33,0,0,1-4.32-4.33h2.42a1.91,1.91,0,0,0,1.9,1.91h10Z" transform="translate(-3.24 -1.74)"/>
        <rect class="cls-1" x="45.85" y="80.92" width="8.74" height="2.42"/>
        <rect class="cls-1" x="45.85" y="87.97" width="8.74" height="2.42"/>
        <path class="cls-1" d="M84,73.45V94.67a1.3,1.3,0,0,1-1.3,1.3H59.27V78.87a4.34,4.34,0,0,0-4.33-4.32H43.61v-13H41.19V82a36.19,36.19,0,0,1-17.66-8.44h10V71.16H21a37.89,37.89,0,0,1-3.53-4.35H33.53V64.39H15.92A36.43,36.43,0,0,1,13.31,59H37.16V56.56h-8.6V47H26.14v9.55H20.39V47H18v9.55H12.49A35.79,35.79,0,0,1,10.91,46H8.48A38.94,38.94,0,0,0,41.19,84.47v10.2a3.73,3.73,0,0,0,3.73,3.73H82.66a3.73,3.73,0,0,0,3.72-3.73V73.45ZM43.61,94.67V77H54.94a1.9,1.9,0,0,1,1.9,1.9V96H44.92A1.31,1.31,0,0,1,43.61,94.67Z" transform="translate(-3.24 -1.74)"/>
        <path class="cls-1" d="M94.19,63.52H73.08a1.21,1.21,0,0,1-.92-.42L60.39,49.55,62.22,48,73.63,61.1H94.19Z" transform="translate(-3.24 -1.74)"/>
        <path class="cls-2" d="M34.43,47.51h-30a1.21,1.21,0,0,1-1.21-1.2v-.08A43.15,43.15,0,0,1,16.91,14.77a47.49,47.49,0,0,1,32.93-13h0A1.21,1.21,0,0,1,51.06,3V35.2H48.63v-31C25.23,4.81,6.3,22.83,5.68,45.09H34.43Z" transform="translate(-3.24 -1.74)"/>
        <rect class="cls-2" x="8.35" y="19.62" width="23.88" height="2.42"/>
        <circle class="cls-2" cx="32.95" cy="20.83" r="3.57"/>
        <rect class="cls-2" x="3.35" y="31.1" width="20.04" height="2.42"/>
        <path class="cls-2" d="M30.92,34.05a3.58,3.58,0,1,1-3.57-3.57A3.57,3.57,0,0,1,30.92,34.05Z" transform="translate(-3.24 -1.74)"/>
        <path class="cls-1" d="M47.76,55.31a6.56,6.56,0,1,1,6.55-6.55A6.56,6.56,0,0,1,47.76,55.31Zm0-10.69a4.14,4.14,0,1,0,4.13,4.14A4.15,4.15,0,0,0,47.76,44.62Z" transform="translate(-3.24 -1.74)"/>
        <path class="cls-2" d="M68.46,28.23H50.87V25.81H68.46a2.27,2.27,0,0,0,2.27-2.27V12.08h2.42V23.54A4.69,4.69,0,0,1,68.46,28.23Z" transform="translate(-3.24 -1.74)"/>
        <rect class="cls-1" x="47.75" y="31.1" width="39.28" height="2.42"/>
        <path class="cls-2" d="M59.9,21.27a1.85,1.85,0,1,1-1.84-1.85A1.84,1.84,0,0,1,59.9,21.27Z" transform="translate(-3.24 -1.74)"/>
        <path class="cls-2" d="M59.9,15.42a1.85,1.85,0,1,1-1.84-1.85A1.84,1.84,0,0,1,59.9,15.42Z" transform="translate(-3.24 -1.74)"/>
        <path class="cls-2" d="M94.44,73.41h-26a1.22,1.22,0,0,1-.92-.43L56.44,60l1.84-1.57L69,71H93.28c1-24.56-3-41.17-12.13-50.76C74.16,12.91,64,9.5,49.23,9.5V7.08c15.5,0,26.2,3.64,33.67,11.47,9.78,10.25,13.95,27.82,12.75,53.7A1.21,1.21,0,0,1,94.44,73.41Z" transform="translate(-3.24 -1.74)"/>
        <path class="cls-1" d="M47.76,63.52A14.77,14.77,0,1,1,62.52,48.76,14.78,14.78,0,0,1,47.76,63.52Zm0-27.11A12.35,12.35,0,1,0,60.1,48.76,12.36,12.36,0,0,0,47.76,36.41Z" transform="translate(-3.24 -1.74)"/>
    </symbol>
    <symbol viewBox="0 0 88.38 97.38" id="bb-3">
        <path class="cls-2" d="M89.49,66.3c-.42-.3-.41-.53-.25-.93a44.93,44.93,0,0,0,2.19-7.69,36.46,36.46,0,0,0,.08-12.46c-.31-1.91-.72-3.8-1.1-5.77l-2.92.74c.06.27.1.48.15.69A45,45,0,0,1,89,52a37.89,37.89,0,0,1-2.64,12.61c-.13.35-.34.35-.64.33a7.43,7.43,0,1,0,3.74,1.4ZM85.11,76.76a4.46,4.46,0,0,1,0-8.92,4.46,4.46,0,1,1,0,8.92Z" transform="translate(-5.84 -1.23)"/>
        <path class="cls-2" d="M28.17,82.32a35.35,35.35,0,0,1-9-8.55c-.23-.28-.09-.45.07-.66a7.14,7.14,0,0,0,1.49-4.44,7.41,7.41,0,0,0-14.48-2.3c-.14.46-.25.94-.37,1.41v1.65a1.86,1.86,0,0,1,.1.31,7.38,7.38,0,0,0,9.68,5.94c1-.32,1-.31,1.72.58a37.72,37.72,0,0,0,7.42,7.35A38.24,38.24,0,0,0,36,89c.88.28,1.77.53,2.7.8L39.42,87l-.93-.27A40.42,40.42,0,0,1,28.17,82.32ZM13.24,73.09a4.45,4.45,0,0,1-4.43-4.5,4.46,4.46,0,1,1,8.92.12A4.43,4.43,0,0,1,13.24,73.09Z" transform="translate(-5.84 -1.23)"/>
        <path class="cls-2" d="M22.93,21.55a43.26,43.26,0,0,1,7.16-5.78,34,34,0,0,1,13.63-4.56c.34-.05.47.08.6.37A7.42,7.42,0,0,0,58.47,9.86a7.38,7.38,0,0,0-4.69-8.11c-.61-.22-1.25-.35-1.88-.52H50.47c-.12,0-.24.08-.36.1a7.16,7.16,0,0,0-5.74,4.33,18.87,18.87,0,0,0-.79,2.6A38.55,38.55,0,0,0,30.83,12,42.69,42.69,0,0,0,20.28,20l2.07,2.17C22.54,22,22.73,21.75,22.93,21.55ZM51.13,4.2a4.47,4.47,0,1,1-4.44,4.64A4.46,4.46,0,0,1,51.13,4.2Z" transform="translate(-5.84 -1.23)"/>
        <path class="cls-1" d="M9,60.54l2.92-.69c-.08-.26-.18-.53-.25-.82a43,43,0,0,1-1.37-9.09,34.1,34.1,0,0,1,3-14.07c.13-.32.31-.37.63-.33a7.41,7.41,0,1,0-3.7-13.13c-.5.41-.94.9-1.41,1.36L8,25c0,.12,0,.25-.09.36a7.16,7.16,0,0,0,.83,7.14,20,20,0,0,0,1.84,2A38.71,38.71,0,0,0,7.35,47.38,42.45,42.45,0,0,0,9,60.54Zm2-34.61a4.47,4.47,0,1,1,1.76,6.19A4.48,4.48,0,0,1,10.92,25.93Z" transform="translate(-5.84 -1.23)"/>
        <path class="cls-1" d="M70.47,16.08A33.93,33.93,0,0,1,81,25.85a.5.5,0,0,1,0,.71,7.41,7.41,0,1,0,13.16,3.58c-.09-.64-.29-1.27-.44-1.91L93,27c-.08-.09-.18-.17-.26-.27a7.18,7.18,0,0,0-6.55-2.95,19.69,19.69,0,0,0-2.66.55,38.42,38.42,0,0,0-9.37-9.41A42.3,42.3,0,0,0,62,9.51l-.91,2.86c.27.06.56.12.83.2A42.38,42.38,0,0,1,70.47,16.08Zm14,11.24a4.46,4.46,0,1,1-1.57,6.07A4.45,4.45,0,0,1,84.51,27.32Z" transform="translate(-5.84 -1.23)"/>
        <path class="cls-1" d="M49.38,23A27.57,27.57,0,1,0,76.82,49.69,27.57,27.57,0,0,0,49.38,23Zm-2,3.57a2.92,2.92,0,0,1,3.88,0,10.62,10.62,0,0,1,2.82,3.66,31.94,31.94,0,0,1,2.83,8.39.9.9,0,0,1,0,.24H41.59c.22-.88.4-1.73.63-2.57a27.87,27.87,0,0,1,2.63-6.71A9.64,9.64,0,0,1,47.35,26.52Zm10.1,15.22c.12,1,.27,2,.36,3a61.38,61.38,0,0,1,.12,9.87c-.11,1.44-.31,2.88-.43,4.32,0,.35-.2.39-.5.39H41.1a61.57,61.57,0,0,1,0-17.57ZM43.37,26.56a32.66,32.66,0,0,0-4.7,12.26h-11C29,34.25,38,27.2,43.37,26.56ZM26.07,58.93a24.47,24.47,0,0,1,0-16.77c.09-.25.15-.45.5-.45,3.79,0,7.58,0,11.37,0l.28,0a67,67,0,0,0,0,17.56H36.32c-3.23,0-6.47,0-9.71,0A.49.49,0,0,1,26.07,58.93Zm1.57,3.27h11c.88,4.34,2.12,8.54,4.69,12.25C38.15,73.94,28.94,66.77,27.64,62.2ZM51.38,74.36c-1.52,1.34-3.33,1.09-4.83-.54A17.59,17.59,0,0,1,43,67.32c-.55-1.66-1-3.36-1.49-5.12H57c-.28,1.13-.52,2.22-.83,3.28a23.65,23.65,0,0,1-3,6.82A11.37,11.37,0,0,1,51.38,74.36Zm3.8.09a32.36,32.36,0,0,0,4.63-11.9.56.56,0,0,1,.4-.36c3.53,0,7.07,0,10.6,0,0,0,.06,0,.09,0C69.71,66.67,60.63,73.77,55.18,74.45ZM72.53,42.24a24.46,24.46,0,0,1,0,16.62c-.09.27-.16.47-.54.47-3.79,0-7.58,0-11.37,0a2,2,0,0,1-.25-.05,67.31,67.31,0,0,0,0-17.54h1.25c3.41,0,6.81,0,10.22,0A.63.63,0,0,1,72.53,42.24Zm-2-3.39H60.35c-.34,0-.5-.08-.58-.46a35.14,35.14,0,0,0-2.51-8.09C56.72,29.15,56,28.06,55.41,27a4.23,4.23,0,0,0-.23-.37c5,.36,14,7.32,15.74,12.23C70.77,38.82,70.64,38.85,70.5,38.85Z" transform="translate(-5.84 -1.23)"/>
        <path class="cls-1" d="M77,77.59a44.91,44.91,0,0,1-8.88,6.76,37.84,37.84,0,0,1-12.23,4.06c-.37.06-.48-.12-.6-.39A7.44,7.44,0,1,0,55.9,92c.05-.52.25-.62.68-.69a45.13,45.13,0,0,0,7.75-2,36.28,36.28,0,0,0,10.81-6.2c1.49-1.22,2.92-2.53,4.44-3.85l-2.1-2.15C77.27,77.3,77.1,77.44,77,77.59ZM50.76,95a4.45,4.45,0,1,1-4.5-7.68A4.45,4.45,0,1,1,50.76,95Z" transform="translate(-5.84 -1.23)"/>
    </symbol>
    <symbol viewBox="0 0 21.81 38.14" id="mobile">
        <rect class="scls-1" x="0.5" y="0.5" width="20.81" height="37.14" rx="2.46"/>
        <rect class="scls-1" x="2.54" y="3.38" width="16.74" height="29.26" rx="0.04"/>
        <path class="cls-1" d="M22.44,36.16a1.75,1.75,0,1,0-1.75,1.74A1.75,1.75,0,0,0,22.44,36.16Z" transform="translate(-9.78 -0.93)"/>
        <rect class="scls-3" x="8.18" y="1.7" width="5.45" height="0.57" rx="0.26"/>
        <polygon class="scls-2" points="12.62 18.27 12.62 14.47 9.6 14.47 9.6 18.27 7.81 18.27 10.98 21.41 14.41 18.27 12.62 18.27"/>
        <path class="cls-2" d="M20.89,13.12a5.76,5.76,0,1,1-5.75,5.75,5.76,5.76,0,0,1,5.75-5.75m0-.87a6.63,6.63,0,1,0,6.63,6.62,6.62,6.62,0,0,0-6.63-6.62Z" transform="translate(-9.78 -0.93)"/>
    </symbol>
    <symbol viewBox="0 0 37.03 29.87" id="structure">
        <path class="cls-1" d="M32.7,11h4.78a.59.59,0,0,0,.59-.6V5.66a.58.58,0,0,0-.59-.59H32.7a.59.59,0,0,0-.6.59v1.8H30.31a.59.59,0,0,0-.6.59V19.4h-.6v-.59a.6.6,0,0,0-.52-.6L27.06,18a7.41,7.41,0,0,0-.79-1.91l.94-1.23a.59.59,0,0,0-.05-.78L25.47,12.4a.6.6,0,0,0-.79-.05l-1.23.94a7.91,7.91,0,0,0-1.9-.8L21.34,11a.59.59,0,0,0-.59-.52H18.36a.59.59,0,0,0-.59.52l-.2,1.53a7.81,7.81,0,0,0-1.91.8l-1.23-.94a.6.6,0,0,0-.79.05L12,14.09a.59.59,0,0,0,0,.78l.94,1.23A7.78,7.78,0,0,0,12.05,18l-1.53.2a.6.6,0,0,0-.52.6v.59H9.4V8.05a.59.59,0,0,0-.6-.59H7V5.66a.58.58,0,0,0-.59-.59H1.64a.59.59,0,0,0-.6.59v4.78a.6.6,0,0,0,.6.6H6.42a.59.59,0,0,0,.59-.6V8.65h1.2V19.4H7V17.61a.59.59,0,0,0-.59-.6H1.64a.6.6,0,0,0-.6.6v4.78a.6.6,0,0,0,.6.6H6.42a.59.59,0,0,0,.59-.6V20.6h1.2V31.35H7V29.56a.59.59,0,0,0-.59-.6H1.64a.6.6,0,0,0-.6.6v4.78a.59.59,0,0,0,.6.59H6.42A.58.58,0,0,0,7,34.34v-1.8H8.8A.59.59,0,0,0,9.4,32V20.6H10v.59a.6.6,0,0,0,.52.6l1.53.2a7.78,7.78,0,0,0,.79,1.91l-.94,1.23a.59.59,0,0,0,0,.78l1.69,1.69a.6.6,0,0,0,.79,0l1.23-.94a7.81,7.81,0,0,0,1.91.8l.2,1.53a.59.59,0,0,0,.59.52h2.39a.59.59,0,0,0,.59-.52l.21-1.53a7.91,7.91,0,0,0,1.9-.8l1.23.94a.6.6,0,0,0,.79,0l1.69-1.69a.59.59,0,0,0,.05-.78l-.94-1.23A7.41,7.41,0,0,0,27.06,22l1.53-.2a.6.6,0,0,0,.52-.6V20.6h.6V32a.59.59,0,0,0,.6.59H32.1v1.8a.59.59,0,0,0,.6.59h4.78a.58.58,0,0,0,.59-.59V29.56a.59.59,0,0,0-.59-.6H32.7a.6.6,0,0,0-.6.6v1.79H30.91V20.6H32.1v1.79a.6.6,0,0,0,.6.6h4.78a.59.59,0,0,0,.59-.6V17.61a.59.59,0,0,0-.59-.6H32.7a.6.6,0,0,0-.6.6V19.4H30.91V8.65H32.1v1.79A.6.6,0,0,0,32.7,11Zm.59-4.78h3.59V9.85H33.29ZM5.82,9.85H2.23V6.26H5.82Zm0,11.94H2.23V18.21H5.82Zm0,12H2.23V30.15H5.82Zm22.1-13.07-1.42.19a.6.6,0,0,0-.51.47,6.29,6.29,0,0,1-.94,2.27.62.62,0,0,0,0,.7l.87,1.14-1,.95-1.14-.88a.6.6,0,0,0-.69,0,6.36,6.36,0,0,1-2.27.94.61.61,0,0,0-.47.51l-.19,1.42H18.88l-.18-1.42a.63.63,0,0,0-.48-.51A6.44,6.44,0,0,1,16,25.49a.6.6,0,0,0-.69,0l-1.14.88-.95-.95L14,24.3a.6.6,0,0,0,0-.7,6.49,6.49,0,0,1-1-2.27.6.6,0,0,0-.5-.47l-1.43-.19V19.33l1.43-.19a.58.58,0,0,0,.5-.47,6.57,6.57,0,0,1,1-2.27.6.6,0,0,0,0-.7l-.87-1.14.95-1,1.14.88a.6.6,0,0,0,.69,0,6.44,6.44,0,0,1,2.27-.94.61.61,0,0,0,.47-.51l.19-1.42h1.35l.19,1.42a.61.61,0,0,0,.47.51,6.36,6.36,0,0,1,2.27.94.6.6,0,0,0,.69,0L25,13.61l1,1-.87,1.14a.62.62,0,0,0,0,.7A6.47,6.47,0,0,1,26,18.67a.61.61,0,0,0,.51.47l1.42.19Zm5.37,9.48h3.59v3.59H33.29Zm0-11.94h3.59v3.58H33.29Z" transform="translate(-1.04 -5.07)"/>
        <path class="cls-2" d="M19.56,14.62A5.38,5.38,0,1,0,24.93,20,5.39,5.39,0,0,0,19.56,14.62Zm0,9.56A4.18,4.18,0,1,1,23.74,20,4.18,4.18,0,0,1,19.56,24.18Z" transform="translate(-1.04 -5.07)"/>
        <path class="cls-2" d="M29.63,19.4h-.52v-.59a.6.6,0,0,0-.52-.6L27.06,18a7.41,7.41,0,0,0-.79-1.91l.94-1.23a.59.59,0,0,0-.05-.78L25.47,12.4a.6.6,0,0,0-.79-.05l-1.23.94a7.91,7.91,0,0,0-1.9-.8L21.34,11a.59.59,0,0,0-.59-.52H18.36a.59.59,0,0,0-.59.52l-.2,1.53a7.81,7.81,0,0,0-1.91.8l-1.23-.94a.6.6,0,0,0-.79.05L12,14.09a.59.59,0,0,0,0,.78l.94,1.23A7.78,7.78,0,0,0,12.05,18l-1.53.2a.6.6,0,0,0-.52.6v.59H9.4v1.2H10v.59a.6.6,0,0,0,.52.6l1.53.2a7.78,7.78,0,0,0,.79,1.91l-.94,1.23a.59.59,0,0,0,0,.78l1.69,1.69a.6.6,0,0,0,.79,0l1.23-.94a7.81,7.81,0,0,0,1.91.8l.2,1.53a.59.59,0,0,0,.59.52h2.39a.59.59,0,0,0,.59-.52l.21-1.53a7.91,7.91,0,0,0,1.9-.8l1.23.94a.6.6,0,0,0,.79,0l1.69-1.69a.59.59,0,0,0,.05-.78l-.94-1.23A7.41,7.41,0,0,0,27.06,22l1.53-.2a.6.6,0,0,0,.52-.6V20.6h.52Zm-1.71,1.27-1.42.19a.6.6,0,0,0-.51.47,6.29,6.29,0,0,1-.94,2.27.62.62,0,0,0,0,.7l.87,1.14-1,.95-1.14-.88a.6.6,0,0,0-.69,0,6.36,6.36,0,0,1-2.27.94.61.61,0,0,0-.47.51l-.19,1.42H18.88l-.18-1.42a.63.63,0,0,0-.48-.51A6.44,6.44,0,0,1,16,25.49a.6.6,0,0,0-.69,0l-1.14.88-.95-.95L14,24.3a.6.6,0,0,0,0-.7,6.49,6.49,0,0,1-1-2.27.6.6,0,0,0-.5-.47l-1.43-.19V19.33l1.43-.19a.58.58,0,0,0,.5-.47,6.57,6.57,0,0,1,1-2.27.6.6,0,0,0,0-.7l-.87-1.14.95-1,1.14.88a.6.6,0,0,0,.69,0,6.44,6.44,0,0,1,2.27-.94.63.63,0,0,0,.48-.51l.18-1.42h1.35l.19,1.42a.61.61,0,0,0,.47.51,6.36,6.36,0,0,1,2.27.94.6.6,0,0,0,.69,0L25,13.61l1,1-.87,1.14a.62.62,0,0,0,0,.7A6.47,6.47,0,0,1,26,18.67a.61.61,0,0,0,.51.47l1.42.19Z" transform="translate(-1.04 -5.07)"/>
    </symbol>
</svg>
