<svg id="Слой_1" data-name="Слой 1" xmlns="http://www.w3.org/2000/svg" viewBox="0 0 37.03 29.87"><defs><style>.cls-1{fill:#575757;}.cls-2{fill:#5ebb46;}</style></defs><title>Структура</title><path class="cls-1" d="M32.7,11h4.78a.59.59,0,0,0,.59-.6V5.66a.58.58,0,0,0-.59-.59H32.7a.59.59,0,0,0-.6.59v1.8H30.31a.59.59,0,0,0-.6.59V19.4h-.6v-.59a.6.6,0,0,0-.52-.6L27.06,18a7.41,7.41,0,0,0-.79-1.91l.94-1.23a.59.59,0,0,0-.05-.78L25.47,12.4a.6.6,0,0,0-.79-.05l-1.23.94a7.91,7.91,0,0,0-1.9-.8L21.34,11a.59.59,0,0,0-.59-.52H18.36a.59.59,0,0,0-.59.52l-.2,1.53a7.81,7.81,0,0,0-1.91.8l-1.23-.94a.6.6,0,0,0-.79.05L12,14.09a.59.59,0,0,0,0,.78l.94,1.23A7.78,7.78,0,0,0,12.05,18l-1.53.2a.6.6,0,0,0-.52.6v.59H9.4V8.05a.59.59,0,0,0-.6-.59H7V5.66a.58.58,0,0,0-.59-.59H1.64a.59.59,0,0,0-.6.59v4.78a.6.6,0,0,0,.6.6H6.42a.59.59,0,0,0,.59-.6V8.65h1.2V19.4H7V17.61a.59.59,0,0,0-.59-.6H1.64a.6.6,0,0,0-.6.6v4.78a.6.6,0,0,0,.6.6H6.42a.59.59,0,0,0,.59-.6V20.6h1.2V31.35H7V29.56a.59.59,0,0,0-.59-.6H1.64a.6.6,0,0,0-.6.6v4.78a.59.59,0,0,0,.6.59H6.42A.58.58,0,0,0,7,34.34v-1.8H8.8A.59.59,0,0,0,9.4,32V20.6H10v.59a.6.6,0,0,0,.52.6l1.53.2a7.78,7.78,0,0,0,.79,1.91l-.94,1.23a.59.59,0,0,0,0,.78l1.69,1.69a.6.6,0,0,0,.79,0l1.23-.94a7.81,7.81,0,0,0,1.91.8l.2,1.53a.59.59,0,0,0,.59.52h2.39a.59.59,0,0,0,.59-.52l.21-1.53a7.91,7.91,0,0,0,1.9-.8l1.23.94a.6.6,0,0,0,.79,0l1.69-1.69a.59.59,0,0,0,.05-.78l-.94-1.23A7.41,7.41,0,0,0,27.06,22l1.53-.2a.6.6,0,0,0,.52-.6V20.6h.6V32a.59.59,0,0,0,.6.59H32.1v1.8a.59.59,0,0,0,.6.59h4.78a.58.58,0,0,0,.59-.59V29.56a.59.59,0,0,0-.59-.6H32.7a.6.6,0,0,0-.6.6v1.79H30.91V20.6H32.1v1.79a.6.6,0,0,0,.6.6h4.78a.59.59,0,0,0,.59-.6V17.61a.59.59,0,0,0-.59-.6H32.7a.6.6,0,0,0-.6.6V19.4H30.91V8.65H32.1v1.79A.6.6,0,0,0,32.7,11Zm.59-4.78h3.59V9.85H33.29ZM5.82,9.85H2.23V6.26H5.82Zm0,11.94H2.23V18.21H5.82Zm0,12H2.23V30.15H5.82Zm22.1-13.07-1.42.19a.6.6,0,0,0-.51.47,6.29,6.29,0,0,1-.94,2.27.62.62,0,0,0,0,.7l.87,1.14-1,.95-1.14-.88a.6.6,0,0,0-.69,0,6.36,6.36,0,0,1-2.27.94.61.61,0,0,0-.47.51l-.19,1.42H18.88l-.18-1.42a.63.63,0,0,0-.48-.51A6.44,6.44,0,0,1,16,25.49a.6.6,0,0,0-.69,0l-1.14.88-.95-.95L14,24.3a.6.6,0,0,0,0-.7,6.49,6.49,0,0,1-1-2.27.6.6,0,0,0-.5-.47l-1.43-.19V19.33l1.43-.19a.58.58,0,0,0,.5-.47,6.57,6.57,0,0,1,1-2.27.6.6,0,0,0,0-.7l-.87-1.14.95-1,1.14.88a.6.6,0,0,0,.69,0,6.44,6.44,0,0,1,2.27-.94.61.61,0,0,0,.47-.51l.19-1.42h1.35l.19,1.42a.61.61,0,0,0,.47.51,6.36,6.36,0,0,1,2.27.94.6.6,0,0,0,.69,0L25,13.61l1,1-.87,1.14a.62.62,0,0,0,0,.7A6.47,6.47,0,0,1,26,18.67a.61.61,0,0,0,.51.47l1.42.19Zm5.37,9.48h3.59v3.59H33.29Zm0-11.94h3.59v3.58H33.29Z" transform="translate(-1.04 -5.07)"/><path class="cls-2" d="M19.56,14.62A5.38,5.38,0,1,0,24.93,20,5.39,5.39,0,0,0,19.56,14.62Zm0,9.56A4.18,4.18,0,1,1,23.74,20,4.18,4.18,0,0,1,19.56,24.18Z" transform="translate(-1.04 -5.07)"/><path class="cls-2" d="M29.63,19.4h-.52v-.59a.6.6,0,0,0-.52-.6L27.06,18a7.41,7.41,0,0,0-.79-1.91l.94-1.23a.59.59,0,0,0-.05-.78L25.47,12.4a.6.6,0,0,0-.79-.05l-1.23.94a7.91,7.91,0,0,0-1.9-.8L21.34,11a.59.59,0,0,0-.59-.52H18.36a.59.59,0,0,0-.59.52l-.2,1.53a7.81,7.81,0,0,0-1.91.8l-1.23-.94a.6.6,0,0,0-.79.05L12,14.09a.59.59,0,0,0,0,.78l.94,1.23A7.78,7.78,0,0,0,12.05,18l-1.53.2a.6.6,0,0,0-.52.6v.59H9.4v1.2H10v.59a.6.6,0,0,0,.52.6l1.53.2a7.78,7.78,0,0,0,.79,1.91l-.94,1.23a.59.59,0,0,0,0,.78l1.69,1.69a.6.6,0,0,0,.79,0l1.23-.94a7.81,7.81,0,0,0,1.91.8l.2,1.53a.59.59,0,0,0,.59.52h2.39a.59.59,0,0,0,.59-.52l.21-1.53a7.91,7.91,0,0,0,1.9-.8l1.23.94a.6.6,0,0,0,.79,0l1.69-1.69a.59.59,0,0,0,.05-.78l-.94-1.23A7.41,7.41,0,0,0,27.06,22l1.53-.2a.6.6,0,0,0,.52-.6V20.6h.52Zm-1.71,1.27-1.42.19a.6.6,0,0,0-.51.47,6.29,6.29,0,0,1-.94,2.27.62.62,0,0,0,0,.7l.87,1.14-1,.95-1.14-.88a.6.6,0,0,0-.69,0,6.36,6.36,0,0,1-2.27.94.61.61,0,0,0-.47.51l-.19,1.42H18.88l-.18-1.42a.63.63,0,0,0-.48-.51A6.44,6.44,0,0,1,16,25.49a.6.6,0,0,0-.69,0l-1.14.88-.95-.95L14,24.3a.6.6,0,0,0,0-.7,6.49,6.49,0,0,1-1-2.27.6.6,0,0,0-.5-.47l-1.43-.19V19.33l1.43-.19a.58.58,0,0,0,.5-.47,6.57,6.57,0,0,1,1-2.27.6.6,0,0,0,0-.7l-.87-1.14.95-1,1.14.88a.6.6,0,0,0,.69,0,6.44,6.44,0,0,1,2.27-.94.63.63,0,0,0,.48-.51l.18-1.42h1.35l.19,1.42a.61.61,0,0,0,.47.51,6.36,6.36,0,0,1,2.27.94.6.6,0,0,0,.69,0L25,13.61l1,1-.87,1.14a.62.62,0,0,0,0,.7A6.47,6.47,0,0,1,26,18.67a.61.61,0,0,0,.51.47l1.42.19Z" transform="translate(-1.04 -5.07)"/></svg>