<svg width="32" height="32" viewBox="0 0 32 32" fill="none" xmlns="http://www.w3.org/2000/svg">
<circle cx="15.9997" cy="16" r="12.6667" fill="white"/>
<path d="M16.0003 2.66666C8.64033 2.66666 2.66699 8.64 2.66699 16C2.66699 23.36 8.64033 29.3333 16.0003 29.3333C23.3603 29.3333 29.3337 23.36 29.3337 16C29.3337 8.64 23.3603 2.66666 16.0003 2.66666ZM14.2936 20.5467C13.8536 21.2533 13.0803 21.68 12.2403 21.68H8.587C8.12033 21.68 7.82698 21.1733 8.06698 20.7733L15.547 7.96C15.7603 7.58667 16.2936 7.56 16.547 7.90666L18.627 10.6933C19.227 11.4933 19.267 12.5733 18.747 13.4267L14.2936 20.5467ZM23.4003 21.68L18.2804 21.68C17.8137 21.68 17.5203 21.1733 17.7603 20.76L20.3203 16.4933C20.5603 16.1067 21.1204 16.1067 21.3604 16.4933L23.9203 20.76C24.1603 21.16 23.867 21.68 23.4003 21.68Z" fill="#E84142"/>
</svg>
