<svg width="91" height="28" viewBox="0 0 91 28" fill="none" xmlns="http://www.w3.org/2000/svg">
<path d="M3.96 22C3.128 22 2.536 21.832 2.184 21.496C1.848 21.144 1.68 20.552 1.68 19.72V7.48C1.68 6.648 1.848 6.064 2.184 5.728C2.536 5.376 3.128 5.2 3.96 5.2H7.056C7.52 5.2 7.848 5.32 8.04 5.56C8.248 5.784 8.4 6.128 8.496 6.592H4.728C4.232 6.592 3.92 6.696 3.792 6.904C3.664 7.112 3.6 7.464 3.6 7.96V19.24C3.6 19.736 3.664 20.088 3.792 20.296C3.92 20.504 4.232 20.608 4.728 20.608H8.496V21.352C8.496 21.608 8.456 21.784 8.376 21.88C8.312 21.96 8.152 22 7.896 22H3.96ZM15.9276 12.592C16.4236 12.592 16.7356 12.488 16.8636 12.28C16.9916 12.072 17.0556 11.72 17.0556 11.224V7.96C17.0556 7.464 16.9916 7.112 16.8636 6.904C16.7356 6.696 16.4236 6.592 15.9276 6.592H12.9996V21.352C12.9996 21.608 12.9516 21.784 12.8556 21.88C12.7756 21.96 12.6076 22 12.3516 22H11.0796V5.848C11.0796 5.592 11.1196 5.424 11.1996 5.344C11.2956 5.248 11.4716 5.2 11.7276 5.2H16.6956C17.5276 5.2 18.1116 5.376 18.4476 5.728C18.7996 6.064 18.9756 6.648 18.9756 7.48V11.704C18.9756 12.456 18.8396 13.008 18.5676 13.36C18.2956 13.696 17.8316 13.896 17.1756 13.96L19.5996 22H18.3756C18.1196 22 17.9276 21.96 17.7996 21.88C17.6876 21.784 17.5916 21.608 17.5116 21.352L15.2796 13.984H14.5596C14.3036 13.984 14.1356 13.944 14.0556 13.864C13.9916 13.768 13.9596 13.592 13.9596 13.336V12.592H15.9276ZM24.1781 19.24C24.1781 19.736 24.2421 20.088 24.3701 20.296C24.4981 20.504 24.8101 20.608 25.3061 20.608H27.4661C27.9621 20.608 28.2741 20.504 28.4021 20.296C28.5301 20.088 28.5941 19.736 28.5941 19.24V7.96C28.5941 7.464 28.5301 7.112 28.4021 6.904C28.2741 6.696 27.9621 6.592 27.4661 6.592H25.3061C24.8101 6.592 24.4981 6.696 24.3701 6.904C24.2421 7.112 24.1781 7.464 24.1781 7.96V19.24ZM22.2581 7.48C22.2581 6.648 22.4261 6.064 22.7621 5.728C23.1141 5.376 23.7061 5.2 24.5381 5.2H28.2341C29.0661 5.2 29.6501 5.376 29.9861 5.728C30.3381 6.064 30.5141 6.648 30.5141 7.48V19.72C30.5141 20.552 30.3381 21.144 29.9861 21.496C29.6501 21.832 29.0661 22 28.2341 22H24.5381C23.7061 22 23.1141 21.832 22.7621 21.496C22.4261 21.144 22.2581 20.552 22.2581 19.72V7.48ZM40.2671 19.72C40.2671 20.552 40.0911 21.144 39.7391 21.496C39.4031 21.832 38.8191 22 37.9871 22H35.0591C34.5951 22 34.2591 21.888 34.0511 21.664C33.8591 21.424 33.7151 21.072 33.6191 20.608H37.2191C37.7151 20.608 38.0271 20.504 38.1551 20.296C38.2831 20.088 38.3471 19.736 38.3471 19.24V15.352C38.3471 14.856 38.2751 14.504 38.1311 14.296C38.0031 14.088 37.6671 13.984 37.1231 13.984H35.8991C35.0671 13.984 34.4751 13.816 34.1231 13.48C33.7871 13.128 33.6191 12.536 33.6191 11.704V7.48C33.6191 6.648 33.7871 6.064 34.1231 5.728C34.4751 5.376 35.0671 5.2 35.8991 5.2H38.7551C39.2191 5.2 39.5471 5.32 39.7391 5.56C39.9471 5.784 40.0991 6.128 40.1951 6.592H36.6671C36.1711 6.592 35.8591 6.696 35.7311 6.904C35.6031 7.112 35.5391 7.464 35.5391 7.96V11.224C35.5391 11.72 35.6031 12.072 35.7311 12.28C35.8591 12.488 36.1711 12.592 36.6671 12.592H37.9871C38.8191 12.592 39.4031 12.768 39.7391 13.12C40.0911 13.456 40.2671 14.04 40.2671 14.872V19.72ZM49.7828 19.72C49.7828 20.552 49.6068 21.144 49.2548 21.496C48.9188 21.832 48.3348 22 47.5028 22H44.5748C44.1108 22 43.7748 21.888 43.5668 21.664C43.3748 21.424 43.2308 21.072 43.1348 20.608H46.7348C47.2308 20.608 47.5428 20.504 47.6708 20.296C47.7988 20.088 47.8628 19.736 47.8628 19.24V15.352C47.8628 14.856 47.7908 14.504 47.6468 14.296C47.5188 14.088 47.1828 13.984 46.6388 13.984H45.4148C44.5828 13.984 43.9908 13.816 43.6388 13.48C43.3028 13.128 43.1348 12.536 43.1348 11.704V7.48C43.1348 6.648 43.3028 6.064 43.6388 5.728C43.9908 5.376 44.5828 5.2 45.4148 5.2H48.2708C48.7348 5.2 49.0628 5.32 49.2548 5.56C49.4628 5.784 49.6148 6.128 49.7108 6.592H46.1828C45.6868 6.592 45.3748 6.696 45.2467 6.904C45.1188 7.112 45.0548 7.464 45.0548 7.96V11.224C45.0548 11.72 45.1188 12.072 45.2467 12.28C45.3748 12.488 45.6868 12.592 46.1828 12.592H47.5028C48.3348 12.592 48.9188 12.768 49.2548 13.12C49.6068 13.456 49.7828 14.04 49.7828 14.872V19.72Z" fill="#00C05A"/>
<path d="M55.1944 22C54.3624 22 53.7704 21.832 53.4184 21.496C53.0824 21.144 52.9144 20.552 52.9144 19.72V7.48C52.9144 6.648 53.0824 6.064 53.4184 5.728C53.7704 5.376 54.3624 5.2 55.1944 5.2H58.2904C58.7544 5.2 59.0824 5.32 59.2744 5.56C59.4824 5.784 59.6344 6.128 59.7304 6.592H55.9624C55.4664 6.592 55.1544 6.696 55.0264 6.904C54.8984 7.112 54.8344 7.464 54.8344 7.96V19.24C54.8344 19.736 54.8984 20.088 55.0264 20.296C55.1544 20.504 55.4664 20.608 55.9624 20.608H59.7304V21.352C59.7304 21.608 59.6904 21.784 59.6104 21.88C59.5464 21.96 59.3864 22 59.1304 22H55.1944ZM64.2339 13.984V20.608H68.8179V21.352C68.8179 21.608 68.7699 21.784 68.6739 21.88C68.5939 21.96 68.4259 22 68.1699 22H62.3139V5.848C62.3139 5.592 62.3539 5.424 62.4339 5.344C62.5299 5.248 62.7059 5.2 62.9619 5.2H68.8179V5.944C68.8179 6.2 68.7779 6.376 68.6979 6.472C68.6339 6.552 68.4739 6.592 68.2179 6.592H64.2339V12.592H68.0979V13.336C68.0979 13.592 68.0579 13.768 67.9779 13.864C67.9139 13.944 67.7539 13.984 67.4979 13.984H64.2339ZM73.5621 13.984V20.608H78.1461V21.352C78.1461 21.608 78.0981 21.784 78.0021 21.88C77.9221 21.96 77.7541 22 77.4981 22H71.6421V5.848C71.6421 5.592 71.6821 5.424 71.7621 5.344C71.8581 5.248 72.0341 5.2 72.2901 5.2H78.1461V5.944C78.1461 6.2 78.1061 6.376 78.0261 6.472C77.9621 6.552 77.8021 6.592 77.5461 6.592H73.5621V12.592H77.4261V13.336C77.4261 13.592 77.3861 13.768 77.3061 13.864C77.2421 13.944 77.0821 13.984 76.8261 13.984H73.5621ZM84.4502 22C84.1942 22 84.0262 21.96 83.9462 21.88C83.8822 21.784 83.8502 21.608 83.8502 21.352V20.608H85.9382C86.4342 20.608 86.7462 20.504 86.8742 20.296C87.0022 20.088 87.0662 19.736 87.0662 19.24V7.96C87.0662 7.464 87.0022 7.112 86.8742 6.904C86.7462 6.696 86.4342 6.592 85.9382 6.592H82.8902V22H80.9702V5.848C80.9702 5.592 81.0102 5.424 81.0902 5.344C81.1862 5.248 81.3622 5.2 81.6182 5.2H86.7062C87.5382 5.2 88.1222 5.376 88.4582 5.728C88.8102 6.064 88.9862 6.648 88.9862 7.48V19.72C88.9862 20.552 88.8102 21.144 88.4582 21.496C88.1222 21.832 87.5382 22 86.7062 22H84.4502Z" fill="white"/>
</svg>
